<mxfile host="app.diagrams.net" modified="2024-02-15T19:59:30.401Z" agent="Mozilla/5.0 (Windows NT 10.0; Win64; x64) AppleWebKit/537.36 (KHTML, like Gecko) Chrome/121.0.0.0 Safari/537.36 Edg/121.0.0.0" etag="6wFz3t3B6TpTx6fLgxQg" version="23.1.5" type="github">
  <diagram id="C5RBs43oDa-KdzZeNtuy" name="Page-1">
    <mxGraphModel dx="2213" dy="793" grid="1" gridSize="10" guides="1" tooltips="1" connect="1" arrows="1" fold="1" page="1" pageScale="1" pageWidth="827" pageHeight="1169" math="0" shadow="0">
      <root>
        <mxCell id="WIyWlLk6GJQsqaUBKTNV-0" />
        <mxCell id="WIyWlLk6GJQsqaUBKTNV-1" parent="WIyWlLk6GJQsqaUBKTNV-0" />
        <mxCell id="Kt66wAR78E_RaEtoUN4U-0" value="ros2_control" style="rounded=0;whiteSpace=wrap;html=1;" vertex="1" parent="WIyWlLk6GJQsqaUBKTNV-1">
          <mxGeometry x="330" y="260" width="120" height="60" as="geometry" />
        </mxCell>
        <mxCell id="Kt66wAR78E_RaEtoUN4U-1" value="" style="whiteSpace=wrap;html=1;aspect=fixed;" vertex="1" parent="WIyWlLk6GJQsqaUBKTNV-1">
          <mxGeometry x="110" y="250" width="80" height="80" as="geometry" />
        </mxCell>
        <mxCell id="Kt66wAR78E_RaEtoUN4U-3" value="Hardware Interface" style="swimlane;whiteSpace=wrap;html=1;" vertex="1" parent="WIyWlLk6GJQsqaUBKTNV-1">
          <mxGeometry x="560" y="140" width="200" height="200" as="geometry" />
        </mxCell>
        <mxCell id="Kt66wAR78E_RaEtoUN4U-4" value="Status LED Ring" style="rounded=0;whiteSpace=wrap;html=1;" vertex="1" parent="Kt66wAR78E_RaEtoUN4U-3">
          <mxGeometry y="20" width="200" height="20" as="geometry" />
        </mxCell>
        <mxCell id="Kt66wAR78E_RaEtoUN4U-14" value="cpp function blah&lt;br&gt;GPIO pin 1" style="rounded=0;whiteSpace=wrap;html=1;" vertex="1" parent="Kt66wAR78E_RaEtoUN4U-3">
          <mxGeometry y="40" width="200" height="60" as="geometry" />
        </mxCell>
        <mxCell id="Kt66wAR78E_RaEtoUN4U-6" value="&lt;h1&gt;ros2_control Lifecycle&lt;/h1&gt;&lt;div&gt;This is the flow of execution for a ros2_control node.&lt;/div&gt;" style="text;html=1;spacing=5;spacingTop=-20;whiteSpace=wrap;overflow=hidden;rounded=0;" vertex="1" parent="WIyWlLk6GJQsqaUBKTNV-1">
          <mxGeometry x="330" y="50" width="190" height="120" as="geometry" />
        </mxCell>
        <mxCell id="Kt66wAR78E_RaEtoUN4U-7" value="" style="endArrow=classic;startArrow=classic;html=1;rounded=0;" edge="1" parent="WIyWlLk6GJQsqaUBKTNV-1">
          <mxGeometry width="50" height="50" relative="1" as="geometry">
            <mxPoint x="180" y="470" as="sourcePoint" />
            <mxPoint x="230" y="420" as="targetPoint" />
          </mxGeometry>
        </mxCell>
        <mxCell id="Kt66wAR78E_RaEtoUN4U-8" value="" style="endArrow=classic;html=1;rounded=0;" edge="1" parent="WIyWlLk6GJQsqaUBKTNV-1">
          <mxGeometry relative="1" as="geometry">
            <mxPoint x="220" y="380" as="sourcePoint" />
            <mxPoint x="380" y="380" as="targetPoint" />
          </mxGeometry>
        </mxCell>
        <mxCell id="Kt66wAR78E_RaEtoUN4U-9" value="Label" style="edgeLabel;resizable=0;html=1;;align=center;verticalAlign=middle;" connectable="0" vertex="1" parent="Kt66wAR78E_RaEtoUN4U-8">
          <mxGeometry relative="1" as="geometry" />
        </mxCell>
        <mxCell id="Kt66wAR78E_RaEtoUN4U-10" value="Source" style="edgeLabel;resizable=0;html=1;;align=left;verticalAlign=bottom;" connectable="0" vertex="1" parent="Kt66wAR78E_RaEtoUN4U-8">
          <mxGeometry x="-1" relative="1" as="geometry" />
        </mxCell>
        <mxCell id="Kt66wAR78E_RaEtoUN4U-11" value="Target" style="edgeLabel;resizable=0;html=1;;align=right;verticalAlign=bottom;" connectable="0" vertex="1" parent="Kt66wAR78E_RaEtoUN4U-8">
          <mxGeometry x="1" relative="1" as="geometry" />
        </mxCell>
        <mxCell id="Kt66wAR78E_RaEtoUN4U-12" value="Environment Variables" style="swimlane;whiteSpace=wrap;html=1;" vertex="1" parent="WIyWlLk6GJQsqaUBKTNV-1">
          <mxGeometry x="60" y="20" width="200" height="200" as="geometry" />
        </mxCell>
        <mxCell id="Kt66wAR78E_RaEtoUN4U-13" value="source ~/.bashrc" style="text;html=1;align=center;verticalAlign=middle;whiteSpace=wrap;rounded=0;" vertex="1" parent="Kt66wAR78E_RaEtoUN4U-12">
          <mxGeometry y="20" width="200" height="30" as="geometry" />
        </mxCell>
        <mxCell id="Kt66wAR78E_RaEtoUN4U-15" value="&lt;h1&gt;Gazebo Simulation&lt;/h1&gt;&lt;p&gt;Lorem ipsum dolor sit amet, consectetur adipisicing elit, sed do eiusmod tempor incididunt ut labore et dolore magna aliqua.&lt;/p&gt;" style="text;html=1;spacing=5;spacingTop=-20;whiteSpace=wrap;overflow=hidden;rounded=0;" vertex="1" parent="WIyWlLk6GJQsqaUBKTNV-1">
          <mxGeometry x="960" y="50" width="190" height="120" as="geometry" />
        </mxCell>
        <mxCell id="Kt66wAR78E_RaEtoUN4U-16" value="&lt;h1&gt;Launch Configuration&lt;/h1&gt;&lt;p&gt;Lorem ipsum dolor sit amet, consectetur adipisicing elit, sed do eiusmod tempor incididunt ut labore et dolore magna aliqua.&lt;/p&gt;" style="text;html=1;spacing=5;spacingTop=-20;whiteSpace=wrap;overflow=hidden;rounded=0;" vertex="1" parent="WIyWlLk6GJQsqaUBKTNV-1">
          <mxGeometry x="-530" y="30" width="190" height="120" as="geometry" />
        </mxCell>
        <mxCell id="Kt66wAR78E_RaEtoUN4U-17" value="Unconfigured" style="rounded=1;whiteSpace=wrap;html=1;" vertex="1" parent="WIyWlLk6GJQsqaUBKTNV-1">
          <mxGeometry x="430" y="525" width="120" height="60" as="geometry" />
        </mxCell>
        <mxCell id="Kt66wAR78E_RaEtoUN4U-18" value="Inactive" style="rounded=1;whiteSpace=wrap;html=1;" vertex="1" parent="WIyWlLk6GJQsqaUBKTNV-1">
          <mxGeometry x="430" y="640" width="120" height="60" as="geometry" />
        </mxCell>
        <mxCell id="Kt66wAR78E_RaEtoUN4U-19" value="Active" style="rounded=1;whiteSpace=wrap;html=1;" vertex="1" parent="WIyWlLk6GJQsqaUBKTNV-1">
          <mxGeometry x="430" y="770" width="120" height="60" as="geometry" />
        </mxCell>
        <mxCell id="Kt66wAR78E_RaEtoUN4U-20" value="" style="curved=1;endArrow=classic;html=1;rounded=0;" edge="1" parent="WIyWlLk6GJQsqaUBKTNV-1">
          <mxGeometry width="50" height="50" relative="1" as="geometry">
            <mxPoint x="400" y="550" as="sourcePoint" />
            <mxPoint x="400" y="640" as="targetPoint" />
            <Array as="points">
              <mxPoint x="340" y="560" />
              <mxPoint x="330" y="600" />
              <mxPoint x="350" y="630" />
            </Array>
          </mxGeometry>
        </mxCell>
        <mxCell id="Kt66wAR78E_RaEtoUN4U-21" value="" style="curved=1;endArrow=classic;html=1;rounded=0;" edge="1" parent="WIyWlLk6GJQsqaUBKTNV-1">
          <mxGeometry width="50" height="50" relative="1" as="geometry">
            <mxPoint x="390" y="670" as="sourcePoint" />
            <mxPoint x="390" y="760" as="targetPoint" />
            <Array as="points">
              <mxPoint x="330" y="680" />
              <mxPoint x="320" y="720" />
              <mxPoint x="340" y="750" />
            </Array>
          </mxGeometry>
        </mxCell>
        <mxCell id="Kt66wAR78E_RaEtoUN4U-22" value="" style="curved=1;endArrow=classic;html=1;rounded=0;" edge="1" parent="WIyWlLk6GJQsqaUBKTNV-1">
          <mxGeometry width="50" height="50" relative="1" as="geometry">
            <mxPoint x="414" y="810" as="sourcePoint" />
            <mxPoint x="414" y="900" as="targetPoint" />
            <Array as="points">
              <mxPoint x="354" y="820" />
              <mxPoint x="344" y="860" />
              <mxPoint x="364" y="890" />
            </Array>
          </mxGeometry>
        </mxCell>
        <mxCell id="Kt66wAR78E_RaEtoUN4U-23" value="on_init()&lt;br&gt;Read parameters etc." style="text;html=1;align=center;verticalAlign=middle;whiteSpace=wrap;rounded=0;" vertex="1" parent="WIyWlLk6GJQsqaUBKTNV-1">
          <mxGeometry x="230" y="470" width="130" height="30" as="geometry" />
        </mxCell>
        <mxCell id="Kt66wAR78E_RaEtoUN4U-24" value="on_shutdown()" style="text;html=1;align=center;verticalAlign=middle;whiteSpace=wrap;rounded=0;" vertex="1" parent="WIyWlLk6GJQsqaUBKTNV-1">
          <mxGeometry x="550" y="480" width="100" height="30" as="geometry" />
        </mxCell>
        <mxCell id="Kt66wAR78E_RaEtoUN4U-25" value="on_configure()&lt;br&gt;Establish comms" style="text;html=1;align=center;verticalAlign=middle;whiteSpace=wrap;rounded=0;" vertex="1" parent="WIyWlLk6GJQsqaUBKTNV-1">
          <mxGeometry x="190" y="570" width="110" height="30" as="geometry" />
        </mxCell>
        <mxCell id="Kt66wAR78E_RaEtoUN4U-26" value="on_activate()&lt;br&gt;Engage actuators" style="text;html=1;align=center;verticalAlign=middle;whiteSpace=wrap;rounded=0;" vertex="1" parent="WIyWlLk6GJQsqaUBKTNV-1">
          <mxGeometry x="180" y="700" width="110" height="30" as="geometry" />
        </mxCell>
        <mxCell id="Kt66wAR78E_RaEtoUN4U-27" value="on_cleanup()&lt;br&gt;Disconnect comms" style="text;html=1;align=center;verticalAlign=middle;whiteSpace=wrap;rounded=0;" vertex="1" parent="WIyWlLk6GJQsqaUBKTNV-1">
          <mxGeometry x="620" y="585" width="110" height="30" as="geometry" />
        </mxCell>
        <mxCell id="Kt66wAR78E_RaEtoUN4U-28" value="on_deactivate()&lt;br&gt;disengage actuators" style="text;html=1;align=center;verticalAlign=middle;whiteSpace=wrap;rounded=0;" vertex="1" parent="WIyWlLk6GJQsqaUBKTNV-1">
          <mxGeometry x="620" y="700" width="130" height="30" as="geometry" />
        </mxCell>
        <mxCell id="Kt66wAR78E_RaEtoUN4U-30" value="&lt;h1&gt;MicroROS&lt;/h1&gt;&lt;p&gt;MicroROS execuation graph&lt;/p&gt;" style="text;html=1;spacing=5;spacingTop=-20;whiteSpace=wrap;overflow=hidden;rounded=0;" vertex="1" parent="WIyWlLk6GJQsqaUBKTNV-1">
          <mxGeometry x="-230" y="1270" width="190" height="120" as="geometry" />
        </mxCell>
      </root>
    </mxGraphModel>
  </diagram>
</mxfile>
